HIERARCHY
ROOT Pelvis
{
	OFFSET 0.000000 0.000000 0.000000
	CHANNELS 6 Xposition Yposition Zposition Xrotation Yrotation Zrotation
	JOINT LeftUpLeg_virtual
	{
		OFFSET 0.000000 0.000000 0.000000
		CHANNELS 3 Xrotation Yrotation Zrotation
		JOINT LeftUpLeg
		{
			OFFSET 18.735201 -5.666702 -4.541200
			CHANNELS 3 Xrotation Yrotation Zrotation
			JOINT LeftLeg
			{
				OFFSET -0.021200 -31.938179 0.493100
				CHANNELS 3 Xrotation Yrotation Zrotation
				JOINT LeftFoot
				{
					OFFSET 0.021200 -31.938179 -4.336299
					CHANNELS 3 Xrotation Yrotation Zrotation
					JOINT LeftToeBase
					{
						OFFSET 0.943001 -26.722000 15.023500
						CHANNELS 3 Xrotation Yrotation Zrotation
						End Site
						{
							OFFSET 0 0 0
						}
					}
				}
			}
		}
	}
	JOINT RightUpLeg_virtual
	{
		OFFSET 0.000000 0.000000 0.000000
		CHANNELS 3 Xrotation Yrotation Zrotation
		JOINT RightUpLeg
		{
			OFFSET -18.735201 -5.666702 -4.541200
			CHANNELS 3 Xrotation Yrotation Zrotation
			JOINT RightLeg
			{
				OFFSET 0.018946 -31.938133 0.493100
				CHANNELS 3 Xrotation Yrotation Zrotation
				JOINT RightFoot
				{
					OFFSET -0.018946 -31.938126 -4.336299
					CHANNELS 3 Xrotation Yrotation Zrotation
					JOINT RightToeBase
					{
						OFFSET -0.943001 -26.722004 15.023500
						CHANNELS 3 Xrotation Yrotation Zrotation
						End Site
						{
							OFFSET 0 0 0
						}
					}
				}
			}
		}
	}
	JOINT Hips_virtual
	{
		OFFSET 0.000000 0.000000 0.000000
		CHANNELS 3 Xrotation Yrotation Zrotation
		JOINT Hips
		{
			OFFSET -0.000000 -0.000000 -0.000000
			CHANNELS 3 Xrotation Yrotation Zrotation
			JOINT Spine
			{
				OFFSET 0.000000 10.199997 -0.299500
				CHANNELS 3 Xrotation Yrotation Zrotation
				JOINT Spine1
				{
					OFFSET 0.000000 11.900002 -1.516600
					CHANNELS 3 Xrotation Yrotation Zrotation
					JOINT Spine2
					{
						OFFSET 0.000000 13.600006 -2.842500
						CHANNELS 3 Xrotation Yrotation Zrotation
						JOINT Neck_virtual
						{
							OFFSET 0.000000 0.000000 0.000000
							CHANNELS 3 Xrotation Yrotation Zrotation
							JOINT Neck
							{
								OFFSET 0.000000 9.624100 -2.890100
								CHANNELS 3 Xrotation Yrotation Zrotation
								JOINT Head
								{
									OFFSET 0.000000 14.068802 -1.351900
									CHANNELS 3 Xrotation Yrotation Zrotation
									End Site
									{
										OFFSET 0 0 0
									}
								}
							}
						}
						JOINT LeftShoulder_virtual
						{
							OFFSET 0.000000 0.000000 0.000000
							CHANNELS 3 Xrotation Yrotation Zrotation
							JOINT LeftShoulder
							{
								OFFSET 15.263000 10.923401 -0.547700
								CHANNELS 3 Xrotation Yrotation Zrotation
								JOINT LeftArm
								{
									OFFSET 25.438599 -2.830597 -13.032500
									CHANNELS 3 Xrotation Yrotation Zrotation
									JOINT LeftForeArm
									{
										OFFSET 29.960503 0.000000 0.000000
										CHANNELS 3 Xrotation Yrotation Zrotation
										JOINT LeftHand
										{
											OFFSET 27.849251 0.000000 0.000000
											CHANNELS 3 Xrotation Yrotation Zrotation
											End Site
											{
												OFFSET 0 0 0
											}
										}
									}
								}
							}
						}
						JOINT RightShoulder_virtual
						{
							OFFSET 0.000000 0.000000 0.000000
							CHANNELS 3 Xrotation Yrotation Zrotation
							JOINT RightShoulder
							{
								OFFSET -15.263000 10.923401 -0.547700
								CHANNELS 3 Xrotation Yrotation Zrotation
								JOINT RightArm
								{
									OFFSET -25.438599 -2.830597 -13.032500
									CHANNELS 3 Xrotation Yrotation Zrotation
									JOINT RightForeArm
									{
										OFFSET -29.960503 0.000000 0.000000
										CHANNELS 3 Xrotation Yrotation Zrotation
										JOINT RightHand
										{
											OFFSET -27.849251 0.000000 0.000000
											CHANNELS 3 Xrotation Yrotation Zrotation
											End Site
											{
												OFFSET 0 0 0
											}
										}
									}
								}
							}
						}
					}
				}
			}
		}
	}
}
MOTION
Frames: 11
Frame Time: 0.03333333
0.106568 92.229568 6.211938 0.000000 0.000000 0.000000 -4.041369 -20.266228 -0.723410 -46.898186 3.631501 16.264808 59.991109 8.375172 -1.534603 5.950284 8.600072 -0.958288 0.000000 0.000000 0.000000 4.410288 -7.183396 16.640998 -25.558611 -10.670172 2.119910 35.922461 -11.832208 -7.362958 -15.411912 -11.118391 -8.881268 0.000000 0.000000 0.000000 0.247059 -1.553780 0.365036 -6.053367 -14.097115 5.992963 3.622053 2.526517 -4.861322 1.696325 2.637330 -3.254336 0.000000 0.000000 0.000000 3.087271 2.849184 -3.089658 -0.867745 0.518514 0.117837 0.000000 0.000000 0.000000 1.856570 4.745033 -3.566223 1.042112 -1.086455 -3.921303 -13.867767 5.251011 -33.799690 -1.130660 -24.775304 1.024248 0.000000 0.000000 0.000000 1.555965 1.426972 -2.974068 1.012481 4.053169 -4.753978 -19.359439 14.991510 7.047761 -3.614642 41.769547 -2.142283 0.000000 0.000000 0.000000 
-0.065905 92.275864 6.508768 0.000000 0.000000 0.000000 -4.244189 -20.511661 -0.874499 -47.103676 3.584804 16.133411 60.312606 8.503782 -1.680310 6.137371 8.789849 -1.065235 0.000000 0.000000 0.000000 4.597811 -7.615039 16.783054 -25.349649 -10.824912 2.258083 35.670543 -11.760810 -7.399140 -15.598047 -11.037709 -8.882487 0.000000 0.000000 0.000000 0.266924 -1.482069 0.356198 -6.225081 -14.532272 5.971754 3.554152 2.631939 -4.879085 1.700529 2.713015 -3.269089 0.000000 0.000000 0.000000 3.098265 2.954788 -3.099316 -0.876509 0.536002 0.143106 0.000000 0.000000 0.000000 1.822223 4.880398 -3.594438 1.042033 -0.994515 -3.668507 -14.001159 5.522952 -33.279164 -1.125285 -24.452619 1.171671 0.000000 0.000000 0.000000 1.567604 1.493100 -2.975417 1.055708 4.011056 -4.607030 -19.588465 15.520177 6.608646 -3.685384 41.844758 -2.142925 0.000000 0.000000 0.000000 
-0.388541 92.366875 7.057387 0.000000 0.000000 0.000000 -4.617638 -20.982415 -1.177713 -47.483123 3.506723 15.872808 60.926496 8.762611 -1.968305 6.481486 9.168573 -1.269171 0.000000 0.000000 0.000000 4.950120 -8.458563 17.030687 -24.965485 -11.118290 2.491401 35.242332 -11.619861 -7.454487 -15.912020 -10.884818 -8.863250 0.000000 0.000000 0.000000 0.321022 -1.380850 0.353851 -6.545967 -15.356323 5.948342 3.423296 2.846045 -4.907110 1.710344 2.858002 -3.297100 0.000000 0.000000 0.000000 3.120710 3.159256 -3.119528 -0.889835 0.568485 0.188809 0.000000 0.000000 0.000000 1.750973 5.139419 -3.648551 1.037517 -0.817335 -3.197812 -14.252730 6.033556 -32.292284 -1.123053 -23.876159 1.444661 0.000000 0.000000 0.000000 1.594544 1.621742 -2.979735 1.136702 3.945511 -4.341115 -20.067632 16.513239 5.781130 -3.823878 41.939783 -2.150262 0.000000 0.000000 0.000000 
-0.823464 92.496452 7.779557 0.000000 0.000000 0.000000 -5.108043 -21.648163 -1.636087 -47.981864 3.422619 15.484510 61.776834 9.153189 -2.388942 6.926211 9.731505 -1.548069 0.000000 0.000000 0.000000 5.428567 -9.669243 17.324377 -24.461044 -11.521449 2.749790 34.761619 -11.411755 -7.502121 -16.258796 -10.672496 -8.788894 0.000000 0.000000 0.000000 0.434185 -1.310177 0.381071 -6.972206 -16.483569 5.946975 3.242344 3.170790 -4.932819 1.727869 3.060948 -3.334912 0.000000 0.000000 0.000000 3.154189 3.449953 -3.151063 -0.902371 0.612050 0.246993 0.000000 0.000000 0.000000 1.641519 5.500911 -3.722571 1.022742 -0.567406 -2.565223 -14.596447 6.725759 -30.934333 -1.136231 -23.158754 1.808050 0.000000 0.000000 0.000000 1.641808 1.806143 -2.989702 1.245334 3.886706 -4.002213 -20.815739 17.858554 4.659219 -4.023999 41.970474 -2.173973 0.000000 0.000000 0.000000 
-1.328702 92.650002 8.583488 0.000000 0.000000 0.000000 -5.654970 -22.480456 -2.254185 -48.534009 3.360093 14.967231 62.786268 9.674586 -2.922588 7.397262 10.465803 -1.865616 0.000000 0.000000 0.000000 5.989076 -11.174269 17.602089 -23.894102 -11.998550 2.960656 34.358717 -11.137403 -7.515178 -16.538606 -10.411954 -8.623584 0.000000 0.000000 0.000000 0.634292 -1.314185 0.457488 -7.445802 -17.803330 5.977876 3.034158 3.600624 -4.942590 1.754663 3.307870 -3.376804 0.000000 0.000000 0.000000 3.195355 3.809687 -3.192928 -0.911688 0.662908 0.309226 0.000000 0.000000 0.000000 1.498611 5.937799 -3.805524 0.994181 -0.260701 -1.828235 -15.002753 7.532145 -29.320209 -1.174888 -22.420029 2.225330 0.000000 0.000000 0.000000 1.712266 2.037203 -3.007988 1.368229 3.865879 -3.639252 -21.819053 19.419857 3.365171 -4.276043 41.863442 -2.223456 0.000000 0.000000 0.000000 
-1.870567 92.803406 9.385057 0.000000 0.000000 0.000000 -6.202263 -23.459220 -3.033894 -49.071631 3.341693 14.318743 63.864523 10.321511 -3.537407 7.815628 11.347894 -2.171724 0.000000 0.000000 0.000000 6.591919 -12.879177 17.817735 -23.310471 -12.513484 3.070845 34.133334 -10.794870 -7.474276 -16.674631 -10.108924 -8.339262 0.000000 0.000000 0.000000 0.942148 -1.398182 0.589873 -7.909901 -19.201357 6.024337 2.828468 4.118771 -4.926221 1.790360 3.584531 -3.415497 0.000000 0.000000 0.000000 3.236452 4.218310 -3.241105 -0.920607 0.718678 0.368987 0.000000 0.000000 0.000000 1.335164 6.420980 -3.882008 0.952634 0.086807 -1.031096 -15.445551 8.386397 -27.562735 -1.243042 -21.753820 2.667771 0.000000 0.000000 0.000000 1.803649 2.304355 -3.036001 1.490741 3.906691 -3.290624 -23.014930 21.058196 2.028780 -4.565992 41.588093 -2.304070 0.000000 0.000000 0.000000 
-2.432491 92.926483 10.124516 0.000000 0.000000 0.000000 -6.701887 -24.571677 -3.966839 -49.528779 3.379845 13.541419 64.918353 11.083298 -4.190278 8.112999 12.343743 -2.407730 0.000000 0.000000 0.000000 7.207841 -14.684598 17.950516 -22.737941 -13.035948 3.057468 34.136814 -10.380242 -7.369815 -16.625259 -9.763914 -7.919313 0.000000 0.000000 0.000000 1.361574 -1.530033 0.768700 -8.325674 -20.581231 6.045234 2.652976 4.698350 -4.880224 1.831594 3.878055 -3.444078 0.000000 0.000000 0.000000 3.266071 4.654306 -3.288624 -0.936211 0.778748 0.422852 0.000000 0.000000 0.000000 1.169869 6.922693 -3.935413 0.902322 0.462161 -0.201615 -15.905390 9.230390 -25.757781 -1.337905 -21.211369 3.117675 0.000000 0.000000 0.000000 1.907718 2.596413 -3.073121 1.599087 4.021084 -2.977549 -24.299730 22.646339 0.765836 -4.875064 41.165185 -2.415121 0.000000 0.000000 0.000000 
-3.016824 92.990578 10.774893 0.000000 0.000000 0.000000 -7.112815 -25.807255 -5.027009 -49.842554 3.474339 12.647708 65.860488 11.942778 -4.830823 8.244946 13.411237 -2.516315 0.000000 0.000000 0.000000 7.819214 -16.505680 18.003067 -22.188607 -13.545179 2.925485 34.376137 -9.890665 -7.200108 -16.380088 -9.375945 -7.358271 0.000000 0.000000 0.000000 1.874411 -1.662851 0.971620 -8.681102 -21.877876 5.992094 2.523093 5.307697 -4.808924 1.871875 4.177393 -3.458522 0.000000 0.000000 0.000000 3.272656 5.096427 -3.327429 -0.966171 0.843657 0.470194 0.000000 0.000000 0.000000 1.021514 7.419186 -3.952808 0.847834 0.856432 0.641848 -16.367560 10.018005 -23.978907 -1.451003 -20.801298 3.566591 0.000000 0.000000 0.000000 2.011871 2.902325 -3.117010 1.682097 4.209364 -2.705271 -25.555732 24.077928 -0.338088 -5.180950 40.650817 -2.550074 0.000000 0.000000 0.000000 
-3.639016 92.976639 11.340527 0.000000 0.000000 0.000000 -7.400063 -27.152118 -6.167747 -49.955874 3.612208 11.662267 66.615607 12.874332 -5.407162 8.196963 14.502857 -2.453582 0.000000 0.000000 0.000000 8.417208 -18.284661 17.991978 -21.665307 -14.030391 2.696636 34.831946 -9.327788 -6.967845 -15.946231 -8.946597 -6.659455 0.000000 0.000000 0.000000 2.444059 -1.762953 1.171594 -8.986769 -23.059741 5.831403 2.436752 5.916626 -4.723044 1.902740 4.472916 -3.459668 0.000000 0.000000 0.000000 3.249524 5.525205 -3.351355 -1.014684 0.913948 0.511871 0.000000 0.000000 0.000000 0.903483 7.892346 -3.929235 0.791091 1.263898 1.480318 -16.817640 10.717467 -22.279958 -1.570302 -20.501627 4.011189 0.000000 0.000000 0.000000 2.102513 3.211771 -3.164896 1.732071 4.462310 -2.469511 -26.682028 25.273250 -1.234162 -5.461944 40.108954 -2.697956 0.000000 0.000000 0.000000 
-4.317827 92.880402 11.847349 0.000000 0.000000 0.000000 -7.537329 -28.583899 -7.325177 -49.825065 3.770252 10.620277 67.123104 13.841482 -5.872050 7.981505 15.567801 -2.199666 0.000000 0.000000 0.000000 8.996432 -19.991981 17.936459 -21.168998 -14.488301 2.396580 35.479069 -8.699026 -6.676904 -15.334152 -8.481544 -5.831122 0.000000 0.000000 0.000000 3.026894 -1.825573 1.345817 -9.264057 -24.123977 5.559682 2.377667 6.500526 -4.636816 1.916231 4.755680 -3.453603 0.000000 0.000000 0.000000 3.198545 5.924136 -3.358782 -1.080426 0.989151 0.548643 0.000000 0.000000 0.000000 0.821356 8.330130 -3.869334 0.730338 1.680865 2.287926 -17.238576 11.312263 -20.700244 -1.682947 -20.276393 4.449345 0.000000 0.000000 0.000000 2.168565 3.515474 -3.215042 1.744726 4.763492 -2.264016 -27.615633 26.182291 -1.906127 -5.702785 39.590761 -2.844739 0.000000 0.000000 0.000000 
-5.066660 92.712341 12.327838 0.000000 0.000000 0.000000 -7.512854 -30.066670 -8.427396 -49.431213 3.920200 9.563844 67.338330 14.796946 -6.188816 7.627478 16.554835 -1.763911 0.000000 0.000000 0.000000 9.549173 -21.617723 17.849969 -20.705375 -14.919150 2.045503 36.301209 -8.015207 -6.330169 -14.549440 -7.988193 -4.880684 0.000000 0.000000 0.000000 3.585294 -1.872465 1.481759 -9.533283 -25.089699 5.204698 2.324691 7.040865 -4.565162 1.907753 5.017165 -3.450388 0.000000 0.000000 0.000000 3.130241 6.280238 -3.353667 -1.157297 1.067353 0.580046 0.000000 0.000000 0.000000 0.774049 8.725663 -3.785811 0.661448 2.105392 3.031656 -17.611976 11.800479 -19.268836 -1.778307 -20.091056 4.877708 0.000000 0.000000 0.000000 2.204051 3.805330 -3.267541 1.718735 5.091603 -2.086102 -28.337584 26.784641 -2.358564 -5.899331 39.130335 -2.974214 0.000000 0.000000 0.000000 
